# xmcd
#
# Track frame offsets: 
#        150
#        27146
#        52330
#        70371
#        100547
#        123127
#        145268
#        169192
#        196729
#        217511
#        239353
#        264280
#        284648
#        307095
#        331015
#
# Disc length: 4661 seconds
#
# Revision: 1
# Processed by: cddbd v1.5.2PL0 Copyright (c) Steve Scherf et al.
# Submitted via: ExactAudioCopy v1.0b3
#
DISCID=d312330f
DTITLE=SINACH - I'M BLESSED
DYEAR=2010
DGENRE=Gospel
TTITLE0=BORN TO WIN TR1
TTITLE1=NEXT IN LINE TR2
TTITLE2=ITS A MIRACLE TR3
TTITLE3=NO FAILURE TR4
TTITLE4=NEVER LATE TR5
TTITLE5=GOD IS OUR ROCK TR6
TTITLE6=SING AND DANCE TR7
TTITLE7=JESUS IS ALIVE TR8
TTITLE8=YOU DESERVE TR9
TTITLE9=MY FAITH TR10
TTITLE10=THERE IS A MIRACLE TR11
TTITLE11=YOU DO MIGHTY THINGS TR12
TTITLE12=I'M BLESSED TR 13
TTITLE13=YOUR ABILITY TR14
TTITLE14=THE BATTLE IS ALREADY WON TR15
EXTD=
EXTT0=
EXTT1=
EXTT2=
EXTT3=
EXTT4=
EXTT5=
EXTT6=
EXTT7=
EXTT8=
EXTT9=
EXTT10=
EXTT11=
EXTT12=
EXTT13=
EXTT14=
PLAYORDER=
